<?xml version="1.0" encoding="utf-8"?>
<!-- Generator: Adobe Illustrator 16.0.0, SVG Export Plug-In . SVG Version: 6.00 Build 0)  -->
<!DOCTYPE svg PUBLIC "-//W3C//DTD SVG 1.1//EN" "http://www.w3.org/Graphics/SVG/1.1/DTD/svg11.dtd">
<svg version="1.1" id="Layer_1" xmlns="http://www.w3.org/2000/svg" xmlns:xlink="http://www.w3.org/1999/xlink" x="0px" y="0px"
	 width="1024px" height="1024px" viewBox="0 0 1024 1024" enable-background="new 0 0 1024 1024" xml:space="preserve">
<rect x="-0.001" fill="#FFFFFF" width="1024.001" height="1024"/>
<path d="M948.642,188.316H75.355c-41.617,0-75.357,33.74-75.357,75.357v496.653c0,41.616,33.74,75.358,75.357,75.358h873.287
	c41.617,0,75.358-33.742,75.358-75.358V263.673C1024,222.056,990.259,188.316,948.642,188.316z M825.413,306.835
	c41.616,0,75.355,33.739,75.355,75.361c0,41.615-33.739,75.355-75.355,75.355c-41.617,0-75.359-33.74-75.359-75.355
	C750.054,340.574,783.796,306.835,825.413,306.835z M895.103,795.982H721.979h-79.404h-513.67
	c-36.513,0-66.115-29.601-66.115-66.103v-51.35l231.18-231.169l200.942,200.96l157.008-157.008l182.73,192l32.896-32.895
	l92.355,92.357C953.904,773.095,927.189,795.982,895.103,795.982z"/>
</svg>
